{
  "source": "C:\\Users\\Peter\\Desktop\\stuff\\MIUN\\quantitative_research\\video_compression\\videos\\BVI-HD\\BVI-HD_CDVL_videos\\ORIG\\FishAndRock_1920x1080_30fps.mp4",
  "output": "C:\\Users\\Peter\\Desktop\\stuff\\MIUN\\quantitative_research\\video_compression\\compressed_videos\\BVI-HD\\h264\\2.5\\FishAndRock_1920x1080_30fps_h264.mp4",
  "codec": "h264",
  "ok": "Input #0, mov,mp4,m4a,3gp,3g2,mj2, from 'C:\\Users\\Peter\\Desktop\\stuff\\MIUN\\quantitative_research\\video_compression\\videos\\BVI-HD\\BVI-HD_CDVL_videos\\ORIG\\FishAndRock_1920x1080_30fps.mp4':\n  Metadata:\n    major_brand     : isom\n    minor_version   : 512\n    compatible_brands: isomiso2avc1mp41\n    encoder         : Lavf54.28.101\n  Duration: 00:00:05.00, start: 0.000000, bitrate: 251564 kb/s\n  Stream #0:0[0x1](und): Video: h264 (High 4:4:4 Predictive) (avc1 / 0x31637661), yuv420p(progressive), 1920x1080, 251561 kb/s, 30 fps, 30 tbr, 30 tbn (default)\n    Metadata:\n      handler_name    : VideoHandler\n      vendor_id       : [0][0][0][0]\n[out#0/mp4 @ 000002443afa1640] Codec AVOption b:a (set bitrate (in bits/s)) has not been used for any stream. The most likely reason is either wrong type (e.g. a video option with no video streams) or that it is a private option of some decoder which was not actually used for any stream.\nStream mapping:\n  Stream #0:0 -> #0:0 (h264 (native) -> h264 (libx264))\nPress [q] to stop, [?] for help\n[libx264 @ 000002443ba300c0] using cpu capabilities: MMX2 SSE2Fast SSSE3 SSE4.2 AVX FMA3 BMI2 AVX2\n[libx264 @ 000002443ba300c0] profile High, level 5.0, 4:2:0, 8-bit\n[libx264 @ 000002443ba300c0] 264 - core 165 r3222 b35605a - H.264/MPEG-4 AVC codec - Copyleft 2003-2025 - http://www.videolan.org/x264.html - options: cabac=1 ref=5 deblock=1:0:0 analyse=0x3:0x113 me=hex subme=8 psy=1 psy_rd=1.00:0.00 mixed_ref=1 me_range=16 chroma_me=1 trellis=2 8x8dct=1 cqm=0 deadzone=21,11 fast_pskip=1 chroma_qp_offset=-2 threads=18 lookahead_threads=3 sliced_threads=0 nr=0 decimate=1 interlaced=0 bluray_compat=0 constrained_intra=0 bframes=3 b_pyramid=2 b_adapt=1 b_bias=0 direct=3 weightb=1 open_gop=0 weightp=2 keyint=250 keyint_min=25 scenecut=40 intra_refresh=0 rc_lookahead=50 rc=cbr mbtree=1 bitrate=2500 ratetol=1.0 qcomp=0.60 qpmin=0 qpmax=69 qpstep=4 vbv_maxrate=2500 vbv_bufsize=2500 nal_hrd=none filler=0 ip_ratio=1.40 aq=1:1.00\nOutput #0, mp4, to 'C:\\Users\\Peter\\Desktop\\stuff\\MIUN\\quantitative_research\\video_compression\\compressed_videos\\BVI-HD\\h264\\2.5\\FishAndRock_1920x1080_30fps_h264.mp4':\n  Metadata:\n    major_brand     : isom\n    minor_version   : 512\n    compatible_brands: isomiso2avc1mp41\n    encoder         : Lavf62.3.100\n  Stream #0:0(und): Video: h264 (avc1 / 0x31637661), yuv420p(tv, progressive), 1920x1080, q=2-31, 2500 kb/s, 30 fps, 15360 tbn (default)\n    Metadata:\n      encoder         : Lavc62.11.100 libx264\n      handler_name    : VideoHandler\n      vendor_id       : [0][0][0][0]\n    Side data:\n      cpb: bitrate max/min/avg: 2500000/0/2500000 buffer size: 2500000 vbv_delay: N/A\nframe=    0 fps=0.0 q=0.0 size=       0KiB time=N/A bitrate=N/A speed=N/A elapsed=0:00:00.51    \nframe=    0 fps=0.0 q=0.0 size=       0KiB time=N/A bitrate=N/A speed=N/A elapsed=0:00:01.06    \nframe=   17 fps= 10 q=35.0 size=       0KiB time=00:00:00.36 bitrate=   1.0kbits/s speed=0.226x elapsed=0:00:01.62    \nframe=   43 fps= 20 q=36.0 size=     256KiB time=00:00:01.33 bitrate=1573.2kbits/s speed=0.608x elapsed=0:00:02.19    \nframe=   71 fps= 26 q=35.0 size=     512KiB time=00:00:02.23 bitrate=1878.2kbits/s speed=0.803x elapsed=0:00:02.78    \nframe=   99 fps= 30 q=35.0 size=     768KiB time=00:00:03.23 bitrate=1945.9kbits/s speed=0.971x elapsed=0:00:03.33    \nframe=  127 fps= 33 q=35.0 size=    1024KiB time=00:00:04.16 bitrate=2013.4kbits/s speed=1.08x elapsed=0:00:03.85    \n[mp4 @ 000002443af99980] Starting second pass: moving the moov atom to the beginning of the file\n[out#0/mp4 @ 000002443afa1640] video:1283KiB audio:0KiB subtitle:0KiB other streams:0KiB global headers:0KiB muxing overhead: 0.201209%\nframe=  150 fps= 37 q=-1.0 Lsize=    1285KiB time=00:00:04.93 bitrate=2134.4kbits/s speed=1.22x elapsed=0:00:04.05    \n[libx264 @ 000002443ba300c0] frame I:1     Avg QP:32.83  size: 59646\n[libx264 @ 000002443ba300c0] frame P:39    Avg QP:31.99  size: 20733\n[libx264 @ 000002443ba300c0] frame B:110   Avg QP:36.31  size:  4042\n[libx264 @ 000002443ba300c0] consecutive B-frames:  1.3%  0.0%  8.0% 90.7%\n[libx264 @ 000002443ba300c0] mb I  I16..4: 20.9% 73.0%  6.0%\n[libx264 @ 000002443ba300c0] mb P  I16..4:  0.6%  2.2%  0.0%  P16..4: 52.3%  8.3%  3.9%  0.0%  0.0%    skip:32.7%\n[libx264 @ 000002443ba300c0] mb B  I16..4:  0.0%  0.1%  0.0%  B16..8: 38.6%  0.9%  0.1%  direct: 0.3%  skip:60.0%  L0:35.8% L1:63.5% BI: 0.7%\n[libx264 @ 000002443ba300c0] 8x8 transform intra:75.7% inter:84.9%\n[libx264 @ 000002443ba300c0] direct mvs  spatial:90.9% temporal:9.1%\n[libx264 @ 000002443ba300c0] coded y,uvDC,uvAC intra: 56.2% 34.4% 2.6% inter: 5.5% 4.1% 0.0%\n[libx264 @ 000002443ba300c0] i16 v,h,dc,p: 22% 33% 16% 29%\n[libx264 @ 000002443ba300c0] i8 v,h,dc,ddl,ddr,vr,hd,vl,hu: 12%  4% 10%  9% 16% 13% 17%  8% 12%\n[libx264 @ 000002443ba300c0] i4 v,h,dc,ddl,ddr,vr,hd,vl,hu:  4%  3%  3% 10% 17% 14% 21%  9% 19%\n[libx264 @ 000002443ba300c0] i8c dc,h,v,p: 45% 36% 12%  7%\n[libx264 @ 000002443ba300c0] Weighted P-Frames: Y:35.9% UV:15.4%\n[libx264 @ 000002443ba300c0] ref P L0: 65.1% 21.0%  9.5%  2.2%  1.7%  0.4%  0.0%\n[libx264 @ 000002443ba300c0] ref B L0: 95.8%  3.2%  0.7%  0.2%\n[libx264 @ 000002443ba300c0] ref B L1: 98.8%  1.2%\n[libx264 @ 000002443ba300c0] kb/s:2100.48\n",
  "seconds": 4.345250129699707,
  "probe_out": {}
}